<svg width="263" height="263" viewBox="0 0 263 263" fill="none" xmlns="http://www.w3.org/2000/svg">
<g clip-path="url(#clip0_55_6)">
<rect width="263" height="263" fill="white"/>
<rect x="1.5" y="1.5" width="260" height="260" rx="28.5" fill="white" stroke="#1DB7AE" stroke-width="3"/>
<path d="M71.9686 209.64V214.93C71.9686 215.528 71.754 216.019 71.3246 216.402C70.9106 216.785 70.397 216.977 69.7836 216.977C69.1703 216.977 68.649 216.785 68.2196 216.402C67.8056 216.019 67.5986 215.528 67.5986 214.93V200.9C67.5986 200.287 67.8056 199.75 68.2196 199.29C68.649 198.83 69.1703 198.6 69.7836 198.6H77.1206C78.6233 198.6 79.919 199.129 81.0076 200.187C82.0963 201.23 82.6406 202.525 82.6406 204.074V204.327C82.5946 205.784 82.0273 207.026 80.9386 208.053C79.8653 209.08 78.5926 209.609 77.1206 209.64H71.9686ZM71.9686 203.177V206.075H76.9366C77.3353 206.075 77.6726 205.937 77.9486 205.661C78.2246 205.37 78.3626 205.025 78.3626 204.626C78.3626 204.227 78.2246 203.89 77.9486 203.614C77.6726 203.323 77.3353 203.177 76.9366 203.177H71.9686ZM85.8026 201.268C87.3819 199.474 89.2756 198.577 91.4836 198.577C93.7069 198.577 95.6083 199.482 97.1876 201.291C98.7669 203.085 99.5566 205.255 99.5566 207.8C99.5566 210.345 98.7669 212.515 97.1876 214.309C95.6083 216.103 93.7069 217 91.4836 217C89.2756 217 87.3819 216.103 85.8026 214.309C84.2233 212.515 83.4336 210.345 83.4336 207.8C83.4336 205.255 84.2233 203.077 85.8026 201.268ZM88.7466 210.951C89.4979 211.825 90.4103 212.262 91.4836 212.262C92.5723 212.262 93.4923 211.825 94.2436 210.951C95.0103 210.077 95.3936 209.027 95.3936 207.8C95.3936 206.573 95.0103 205.523 94.2436 204.649C93.4923 203.775 92.5723 203.338 91.4836 203.338C90.4103 203.338 89.4903 203.775 88.7236 204.649C87.9723 205.523 87.5966 206.573 87.5966 207.8C87.5966 209.027 87.9799 210.077 88.7466 210.951ZM116.183 212.423C116.765 212.423 117.248 212.653 117.632 213.113C118.03 213.558 118.23 214.087 118.23 214.7V219.553C118.23 220.12 118.03 220.603 117.632 221.002C117.233 221.401 116.75 221.6 116.183 221.6C115.615 221.6 115.132 221.401 114.734 221.002C114.335 220.603 114.136 220.12 114.136 219.553V217H102.981V219.553C102.981 220.105 102.781 220.58 102.383 220.979C101.984 221.393 101.501 221.6 100.934 221.6C100.382 221.6 99.8987 221.393 99.4847 220.979C99.0861 220.58 98.8867 220.105 98.8867 219.553V214.7C98.8867 214.087 99.0784 213.558 99.4617 213.113C99.8604 212.653 100.351 212.423 100.934 212.423C101.394 212.423 101.708 212.354 101.877 212.216C102.061 212.063 102.222 211.794 102.36 211.411L105.074 200.647C105.242 200.064 105.495 199.581 105.833 199.198C106.185 198.799 106.615 198.6 107.121 198.6H112.917C113.484 198.6 113.967 198.807 114.366 199.221C114.764 199.62 114.964 200.095 114.964 200.647V212.423H116.183ZM110.87 212.423V202.694H108.639L106.247 212.423H110.87ZM121.579 198.6C122.208 198.6 122.729 198.822 123.143 199.267C123.557 199.696 123.764 200.218 123.764 200.831V208.099L128.939 199.405C129.138 199.068 129.376 198.853 129.652 198.761C129.943 198.654 130.219 198.6 130.48 198.6C131.17 198.6 131.73 198.807 132.159 199.221C132.604 199.635 132.826 200.172 132.826 200.831V214.792C132.826 215.083 132.765 215.367 132.642 215.643C132.535 215.904 132.381 216.141 132.182 216.356C131.998 216.555 131.776 216.716 131.515 216.839C131.254 216.946 130.971 217 130.664 217C130.357 217 130.066 216.946 129.79 216.839C129.514 216.716 129.276 216.555 129.077 216.356C128.878 216.141 128.717 215.904 128.594 215.643C128.487 215.367 128.433 215.083 128.433 214.792V207.57L123.327 216.126C123.097 216.463 122.844 216.693 122.568 216.816C122.307 216.939 122.024 217 121.717 217C121.058 217 120.498 216.793 120.038 216.379C119.593 215.965 119.371 215.436 119.371 214.792V200.831C119.371 200.202 119.578 199.673 119.992 199.244C120.406 198.815 120.935 198.6 121.579 198.6ZM146.46 198.6C147.012 198.631 147.488 198.845 147.886 199.244C148.285 199.627 148.484 200.103 148.484 200.67C148.484 201.222 148.285 201.697 147.886 202.096C147.472 202.51 146.997 202.725 146.46 202.74H143.286V214.93C143.286 215.513 143.095 215.996 142.711 216.379C142.297 216.793 141.799 217 141.216 217C140.649 217 140.158 216.793 139.744 216.379C139.346 215.965 139.146 215.482 139.146 214.93V202.74H135.972C135.42 202.725 134.937 202.51 134.523 202.096C134.14 201.697 133.948 201.222 133.948 200.67C133.948 200.103 134.14 199.627 134.523 199.244C134.922 198.845 135.405 198.631 135.972 198.6H146.46ZM153.675 202.671V205.799H158.804C159.386 205.799 159.869 205.991 160.253 206.374C160.636 206.757 160.828 207.24 160.828 207.823C160.828 208.406 160.636 208.896 160.253 209.295C159.869 209.678 159.386 209.87 158.804 209.87H153.675V212.492H158.62C158.926 212.492 159.21 212.553 159.471 212.676C159.747 212.783 159.984 212.944 160.184 213.159C160.383 213.358 160.536 213.596 160.644 213.872C160.766 214.148 160.828 214.439 160.828 214.746C160.828 215.39 160.605 215.927 160.161 216.356C159.731 216.785 159.202 217 158.574 217H151.628C151.382 217 151.137 216.954 150.892 216.862C150.646 216.755 150.424 216.617 150.225 216.448C150.041 216.264 149.887 216.057 149.765 215.827C149.657 215.597 149.604 215.352 149.604 215.091V200.532C149.604 200.271 149.657 200.026 149.765 199.796C149.887 199.551 150.041 199.344 150.225 199.175C150.409 198.991 150.623 198.853 150.869 198.761C151.114 198.654 151.367 198.6 151.628 198.6H159.885C160.467 198.6 160.95 198.784 161.334 199.152C161.717 199.52 161.909 199.995 161.909 200.578C161.909 200.869 161.855 201.145 161.748 201.406C161.64 201.651 161.495 201.874 161.311 202.073C161.127 202.257 160.904 202.403 160.644 202.51C160.398 202.617 160.138 202.671 159.862 202.671H153.675ZM176.009 198.6C176.561 198.6 177.036 198.807 177.435 199.221C177.849 199.635 178.056 200.11 178.056 200.647V214.677C178.056 215.26 177.849 215.789 177.435 216.264C177.036 216.739 176.561 216.977 176.009 216.977C175.472 216.977 174.997 216.739 174.583 216.264C174.184 215.789 173.985 215.26 173.985 214.677V202.694H171.754C170.159 209.149 169.362 212.385 169.362 212.4C169.055 213.642 168.465 214.715 167.591 215.62C166.717 216.525 165.889 216.977 165.107 216.977H164.049C163.543 216.977 163.075 216.732 162.646 216.241C162.217 215.735 162.002 215.221 162.002 214.7C162.002 214.163 162.217 213.65 162.646 213.159C163.075 212.653 163.543 212.4 164.049 212.4C164.509 212.4 164.823 212.331 164.992 212.193C165.176 212.04 165.337 211.771 165.475 211.388L168.189 200.647C168.342 200.064 168.588 199.581 168.925 199.198C169.278 198.799 169.715 198.6 170.236 198.6H176.009ZM188.729 205.96C190.201 205.975 191.474 206.497 192.547 207.524C193.636 208.551 194.203 209.793 194.249 211.25V211.503C194.249 213.052 193.705 214.355 192.616 215.413C191.527 216.456 190.232 216.977 188.729 216.977H181.392C180.779 216.977 180.257 216.747 179.828 216.287C179.414 215.827 179.207 215.29 179.207 214.677V200.647C179.207 200.049 179.414 199.558 179.828 199.175C180.257 198.792 180.779 198.6 181.392 198.6C182.005 198.6 182.519 198.792 182.933 199.175C183.362 199.558 183.577 200.049 183.577 200.647V205.96H188.729ZM188.545 212.4C188.944 212.4 189.281 212.262 189.557 211.986C189.833 211.695 189.971 211.357 189.971 210.974C189.971 210.575 189.833 210.23 189.557 209.939C189.281 209.648 188.944 209.502 188.545 209.502L183.577 209.525V212.4H188.545Z" fill="black"/>
<path d="M141.707 238.707C142.098 238.317 142.098 237.683 141.707 237.293L135.343 230.929C134.953 230.538 134.319 230.538 133.929 230.929C133.538 231.319 133.538 231.953 133.929 232.343L139.586 238L133.929 243.657C133.538 244.047 133.538 244.681 133.929 245.071C134.319 245.462 134.953 245.462 135.343 245.071L141.707 238.707ZM122 239H141V237H122V239Z" fill="black"/>
<path d="M78.8631 129.473C65.1316 115.585 65.1316 93.0668 78.8631 79.1783C92.5947 65.2898 114.858 65.2898 128.589 79.1783L181.185 132.375L131.458 182.669L78.8631 129.473Z" fill="#F94343"/>
<path d="M184.137 129.442C197.868 115.554 197.868 93.0359 184.137 79.1474C170.405 65.2589 148.142 65.2589 134.411 79.1474L81.8155 132.344L131.542 182.639L184.137 129.442Z" fill="#F94343"/>
<path fill-rule="evenodd" clip-rule="evenodd" d="M84.0569 87.867C84.0565 87.8844 84.0559 87.9018 84.0552 87.9191L84.0556 87.9145C84.0581 87.8891 84.0653 87.8262 84.0826 87.7325C84.1177 87.5426 84.1912 87.2451 84.3398 86.8877C84.6259 86.1996 85.1965 85.2619 86.4327 84.3594C87.691 83.4408 88.738 83.189 89.4334 83.1273C89.7975 83.095 90.0813 83.1146 90.2545 83.137C90.3386 83.1479 90.3925 83.159 90.4122 83.1633C91.9215 83.5871 93.802 82.7018 94.6395 81.162C95.4881 79.6019 94.9446 77.9607 93.4256 77.4962L91.8891 80.321C93.4256 77.4962 93.4227 77.4953 93.4227 77.4953L93.4197 77.4944L93.4135 77.4926L93.4001 77.4886L93.3695 77.4797L93.2928 77.4586C93.235 77.4433 93.1636 77.4256 93.0791 77.4068C92.9105 77.3694 92.6884 77.3274 92.4178 77.2924C91.8789 77.2226 91.1325 77.1782 90.2241 77.2588C88.3745 77.4229 85.9071 78.1047 83.288 80.0167C80.6469 81.9448 79.2409 84.1376 78.5197 85.8724C78.1646 86.7264 77.9768 87.4634 77.8766 88.0052C77.8262 88.2774 77.7972 88.5045 77.7803 88.6778C77.7719 88.7646 77.7665 88.8383 77.763 88.8979L77.7591 88.9768L77.758 89.0082L77.7576 89.0218L77.7575 89.0281L77.7574 89.0311C77.7574 89.0311 77.7573 89.034 80.9068 88.4491L77.7573 89.034C77.7221 90.6294 79.1037 91.6609 80.8433 91.3378C82.5629 91.0184 83.9885 89.4951 84.0552 87.9191M90.3583 83.1476L90.3636 83.1492L90.3736 83.1521L90.3905 83.157L90.4122 83.1633C90.3942 83.1582 90.3762 83.153 90.3583 83.1476Z" fill="white"/>
</g>
<defs>
<clipPath id="clip0_55_6">
<rect width="263" height="263" fill="white"/>
</clipPath>
</defs>
</svg>
