<svg width="263" height="263" viewBox="0 0 263 263" fill="none" xmlns="http://www.w3.org/2000/svg">
<g clip-path="url(#clip0_55_40)">
<rect width="263" height="263" fill="white"/>
<rect x="1.5" y="1.5" width="260" height="260" rx="28.5" fill="white" stroke="#1DB7AE" stroke-width="3"/>
<path d="M102.096 199.359C102.372 199.742 102.51 200.164 102.51 200.624C102.51 200.701 102.51 200.77 102.51 200.831C102.495 201.046 102.449 201.245 102.372 201.429L95.6328 215.62C95.4028 216.019 94.9965 216.348 94.4138 216.609C93.8312 216.87 93.2562 217 92.6888 217H92.4588C92.1828 217 91.8685 216.931 91.5158 216.793C91.1632 216.655 90.8872 216.471 90.6878 216.241C90.2585 215.735 90.0438 215.221 90.0438 214.7C90.0438 214.163 90.2585 213.65 90.6878 213.159C91.1172 212.653 91.5848 212.4 92.0908 212.4C92.5508 212.4 92.8728 212.331 93.0568 212.193C93.1795 212.07 93.3022 211.886 93.4248 211.641L88.5488 201.521C88.4415 201.306 88.3802 201.084 88.3648 200.854C88.3495 200.762 88.3418 200.678 88.3418 200.601C88.3418 200.156 88.4798 199.75 88.7558 199.382C89.0778 198.937 89.5225 198.684 90.0898 198.623C90.1665 198.608 90.2355 198.6 90.2968 198.6C90.6495 198.6 90.9868 198.692 91.3088 198.876C91.7075 199.106 91.9988 199.428 92.1828 199.842L95.5408 206.834L98.6688 199.865C98.8375 199.451 99.1212 199.137 99.5198 198.922C99.8725 198.707 100.233 198.6 100.601 198.6C100.647 198.6 100.693 198.6 100.739 198.6C101.306 198.661 101.759 198.914 102.096 199.359ZM114.516 198.6C115.084 198.6 115.567 198.792 115.965 199.175C116.364 199.558 116.563 200.049 116.563 200.647V214.953C116.563 215.52 116.364 216.003 115.965 216.402C115.551 216.801 115.068 217 114.516 217C113.949 217 113.466 216.801 113.067 216.402C112.684 216.019 112.485 215.536 112.469 214.953V210.008H109.709C108.038 209.962 106.604 209.333 105.408 208.122C104.228 206.895 103.637 205.439 103.637 203.752V200.647C103.637 200.003 103.814 199.512 104.166 199.175C104.565 198.792 105.048 198.6 105.615 198.6C106.183 198.6 106.666 198.792 107.064 199.175C107.417 199.512 107.593 200.003 107.593 200.647V204.258C107.639 204.795 107.869 205.255 108.283 205.638C108.682 206.021 109.165 206.213 109.732 206.213H112.469V200.647C112.469 200.049 112.669 199.558 113.067 199.175C113.451 198.792 113.934 198.6 114.516 198.6ZM121.769 202.671V205.799H126.898C127.48 205.799 127.963 205.991 128.347 206.374C128.73 206.757 128.922 207.24 128.922 207.823C128.922 208.406 128.73 208.896 128.347 209.295C127.963 209.678 127.48 209.87 126.898 209.87H121.769V212.492H126.714C127.02 212.492 127.304 212.553 127.565 212.676C127.841 212.783 128.078 212.944 128.278 213.159C128.477 213.358 128.63 213.596 128.738 213.872C128.86 214.148 128.922 214.439 128.922 214.746C128.922 215.39 128.699 215.927 128.255 216.356C127.825 216.785 127.296 217 126.668 217H119.722C119.476 217 119.231 216.954 118.986 216.862C118.74 216.755 118.518 216.617 118.319 216.448C118.135 216.264 117.981 216.057 117.859 215.827C117.751 215.597 117.698 215.352 117.698 215.091V200.532C117.698 200.271 117.751 200.026 117.859 199.796C117.981 199.551 118.135 199.344 118.319 199.175C118.503 198.991 118.717 198.853 118.963 198.761C119.208 198.654 119.461 198.6 119.722 198.6H127.979C128.561 198.6 129.044 198.784 129.428 199.152C129.811 199.52 130.003 199.995 130.003 200.578C130.003 200.869 129.949 201.145 129.842 201.406C129.734 201.651 129.589 201.874 129.405 202.073C129.221 202.257 128.998 202.403 128.738 202.51C128.492 202.617 128.232 202.671 127.956 202.671H121.769ZM143.02 199.198C143.419 199.612 143.618 200.095 143.618 200.647V214.953C143.618 215.505 143.419 215.988 143.02 216.402C142.621 216.801 142.138 217 141.571 217C141.05 217 140.567 216.801 140.122 216.402C139.723 216.049 139.524 215.566 139.524 214.953V210.376H135.246V214.953C135.246 215.566 135.047 216.049 134.648 216.402C134.203 216.801 133.72 217 133.199 217C132.678 217 132.195 216.801 131.75 216.402C131.351 216.034 131.152 215.551 131.152 214.953V200.647C131.152 200.08 131.351 199.597 131.75 199.198C132.164 198.799 132.647 198.6 133.199 198.6C133.766 198.6 134.257 198.799 134.671 199.198C135.054 199.566 135.246 200.049 135.246 200.647V206.19H139.524V200.647C139.524 200.08 139.723 199.597 140.122 199.198C140.521 198.799 141.004 198.6 141.571 198.6C142.154 198.6 142.637 198.799 143.02 199.198ZM146.949 198.6C147.577 198.6 148.099 198.822 148.513 199.267C148.927 199.696 149.134 200.218 149.134 200.831V208.099L154.309 199.405C154.508 199.068 154.746 198.853 155.022 198.761C155.313 198.654 155.589 198.6 155.85 198.6C156.54 198.6 157.099 198.807 157.529 199.221C157.973 199.635 158.196 200.172 158.196 200.831V214.792C158.196 215.083 158.134 215.367 158.012 215.643C157.904 215.904 157.751 216.141 157.552 216.356C157.368 216.555 157.145 216.716 156.885 216.839C156.624 216.946 156.34 217 156.034 217C155.727 217 155.436 216.946 155.16 216.839C154.884 216.716 154.646 216.555 154.447 216.356C154.247 216.141 154.086 215.904 153.964 215.643C153.856 215.367 153.803 215.083 153.803 214.792V207.57L148.697 216.126C148.467 216.463 148.214 216.693 147.938 216.816C147.677 216.939 147.393 217 147.087 217C146.427 217 145.868 216.793 145.408 216.379C144.963 215.965 144.741 215.436 144.741 214.792V200.831C144.741 200.202 144.948 199.673 145.362 199.244C145.776 198.815 146.305 198.6 146.949 198.6ZM172.888 211.365C173.317 211.748 173.532 212.231 173.532 212.814C173.532 213.366 173.348 213.834 172.98 214.217C172.612 214.6 172.16 214.792 171.623 214.792C171.332 214.792 171.04 214.731 170.749 214.608C170.473 214.485 170.251 214.309 170.082 214.079L164.93 208.559L163.596 209.962V214.884C163.596 215.175 163.542 215.451 163.435 215.712C163.328 215.973 163.174 216.203 162.975 216.402C162.776 216.586 162.546 216.732 162.285 216.839C162.04 216.946 161.764 217 161.457 217C161.166 217 160.89 216.946 160.629 216.839C160.368 216.716 160.138 216.563 159.939 216.379C159.74 216.18 159.586 215.957 159.479 215.712C159.372 215.451 159.318 215.175 159.318 214.884V200.67C159.318 200.379 159.372 200.11 159.479 199.865C159.602 199.604 159.763 199.382 159.962 199.198C160.161 199.014 160.391 198.868 160.652 198.761C160.913 198.654 161.189 198.6 161.48 198.6C161.771 198.6 162.047 198.654 162.308 198.761C162.569 198.868 162.791 199.014 162.975 199.198C163.174 199.382 163.328 199.604 163.435 199.865C163.542 200.11 163.596 200.379 163.596 200.67V204.304L167.736 199.865C167.905 199.696 168.096 199.581 168.311 199.52C168.526 199.443 168.748 199.405 168.978 199.405C169.515 199.405 169.975 199.597 170.358 199.98C170.741 200.363 170.933 200.831 170.933 201.383C170.933 201.797 170.81 202.173 170.565 202.51L167.598 205.684L172.888 211.365Z" fill="black"/>
<path d="M141.707 238.707C142.098 238.317 142.098 237.683 141.707 237.293L135.343 230.929C134.953 230.538 134.319 230.538 133.929 230.929C133.538 231.319 133.538 231.953 133.929 232.343L139.586 238L133.929 243.657C133.538 244.047 133.538 244.681 133.929 245.071C134.319 245.462 134.953 245.462 135.343 245.071L141.707 238.707ZM122 239H141V237H122V239Z" fill="black"/>
<path d="M117.993 63.9689L129.493 61.7451L137.832 104.868L130.932 106.202C130.932 106.202 130.806 88.4922 128.305 80.2756C125.762 71.9244 117.993 63.9689 117.993 63.9689Z" fill="#5D3E20"/>
<path d="M193 123.192C193 146.055 176.299 173.827 154.725 182.321C147.387 185.211 140.894 177.941 132.399 177.941C123.903 177.941 115.816 185.211 108.477 182.321C86.9037 173.827 71 146.055 71 123.192C71 104.051 74.2679 95.0314 90.9346 85.9621C100.955 80.5092 119.837 88.1521 132.399 88.1521C144.96 88.1521 162.062 80.7581 172.268 85.9621C188.098 94.0342 193 104.051 193 123.192Z" fill="#E73E3E"/>
<path d="M186 125.233C186 145.787 171.215 170.754 152.118 178.39C145.621 180.987 139.874 174.452 132.353 174.452C124.832 174.452 117.673 180.987 111.176 178.39C92.0787 170.754 78 145.787 78 125.233C78 108.026 80.8929 99.9172 95.6471 91.7639C104.518 86.8618 121.233 93.7327 132.353 93.7327C143.473 93.7327 158.613 87.0856 167.647 91.7639C181.661 99.0207 186 108.026 186 125.233Z" fill="#F94343"/>
<path d="M163.269 73.2687C151.834 84.7036 134.282 85.6916 134.282 85.6916C134.282 85.6916 135.27 68.1398 146.705 56.7048C158.14 45.2699 175.692 44.2819 175.692 44.2819C175.692 44.2819 174.704 61.8337 163.269 73.2687Z" fill="#8FC529"/>
<path fill-rule="evenodd" clip-rule="evenodd" d="M93.0569 105.867C93.0565 105.884 93.0559 105.902 93.0552 105.919L93.0556 105.914C93.0581 105.889 93.0653 105.826 93.0826 105.733C93.1177 105.543 93.1912 105.245 93.3398 104.888C93.6259 104.2 94.1965 103.262 95.4327 102.359C96.691 101.441 97.738 101.189 98.4334 101.127C98.7975 101.095 99.0813 101.115 99.2545 101.137C99.3386 101.148 99.3925 101.159 99.4122 101.163C100.922 101.587 102.802 100.702 103.64 99.162C104.488 97.6019 103.945 95.9607 102.426 95.4962L100.889 98.321C102.426 95.4962 102.423 95.4953 102.423 95.4953L102.42 95.4944L102.413 95.4926L102.4 95.4886L102.369 95.4797L102.293 95.4586C102.235 95.4433 102.164 95.4256 102.079 95.4068C101.911 95.3694 101.688 95.3274 101.418 95.2924C100.879 95.2226 100.133 95.1782 99.2241 95.2588C97.3745 95.4229 94.9071 96.1047 92.288 98.0167C89.6469 99.9448 88.2409 102.138 87.5197 103.872C87.1646 104.726 86.9768 105.463 86.8766 106.005C86.8262 106.277 86.7972 106.505 86.7803 106.678C86.7719 106.765 86.7665 106.838 86.763 106.898L86.7591 106.977L86.758 107.008L86.7576 107.022L86.7575 107.028L86.7574 107.031C86.7574 107.031 86.7573 107.034 89.9068 106.449L86.7573 107.034C86.7221 108.629 88.1037 109.661 89.8433 109.338C91.5629 109.018 92.9885 107.495 93.0552 105.919M99.3583 101.148L99.3636 101.149L99.3736 101.152L99.3905 101.157L99.4122 101.163C99.3942 101.158 99.3762 101.153 99.3583 101.148Z" fill="white"/>
</g>
<defs>
<clipPath id="clip0_55_40">
<rect width="263" height="263" fill="white"/>
</clipPath>
</defs>
</svg>
