<svg width="271" height="271" viewBox="0 0 271 271" fill="none" xmlns="http://www.w3.org/2000/svg">
<g clip-path="url(#clip0_55_50)" filter="url(#filter0_d_55_50)">
<rect width="263" height="263" transform="translate(4)" fill="white"/>
<rect x="5.5" y="1.5" width="260" height="260" rx="28.5" fill="white" stroke="#1DB7AE" stroke-width="3"/>
<path d="M44.4672 209.64V214.93C44.4672 215.528 44.2525 216.019 43.8232 216.402C43.4092 216.785 42.8955 216.977 42.2822 216.977C41.6688 216.977 41.1475 216.785 40.7182 216.402C40.3042 216.019 40.0972 215.528 40.0972 214.93V200.9C40.0972 200.287 40.3042 199.75 40.7182 199.29C41.1475 198.83 41.6688 198.6 42.2822 198.6H49.6192C51.1218 198.6 52.4175 199.129 53.5062 200.187C54.5948 201.23 55.1392 202.525 55.1392 204.074V204.327C55.0932 205.784 54.5258 207.026 53.4372 208.053C52.3638 209.08 51.0912 209.609 49.6192 209.64H44.4672ZM44.4672 203.177V206.075H49.4352C49.8338 206.075 50.1712 205.937 50.4472 205.661C50.7232 205.37 50.8612 205.025 50.8612 204.626C50.8612 204.227 50.7232 203.89 50.4472 203.614C50.1712 203.323 49.8338 203.177 49.4352 203.177H44.4672ZM69.507 199.359C69.783 199.742 69.921 200.164 69.921 200.624C69.921 200.701 69.921 200.77 69.921 200.831C69.9056 201.046 69.8596 201.245 69.783 201.429L63.044 215.62C62.814 216.019 62.4076 216.348 61.825 216.609C61.2423 216.87 60.6673 217 60.1 217H59.87C59.594 217 59.2796 216.931 58.927 216.793C58.5743 216.655 58.2983 216.471 58.099 216.241C57.6696 215.735 57.455 215.221 57.455 214.7C57.455 214.163 57.6696 213.65 58.099 213.159C58.5283 212.653 58.996 212.4 59.502 212.4C59.962 212.4 60.284 212.331 60.468 212.193C60.5906 212.07 60.7133 211.886 60.836 211.641L55.96 201.521C55.8526 201.306 55.7913 201.084 55.776 200.854C55.7606 200.762 55.753 200.678 55.753 200.601C55.753 200.156 55.891 199.75 56.167 199.382C56.489 198.937 56.9336 198.684 57.501 198.623C57.5776 198.608 57.6466 198.6 57.708 198.6C58.0606 198.6 58.398 198.692 58.72 198.876C59.1186 199.106 59.41 199.428 59.594 199.842L62.952 206.834L66.08 199.865C66.2486 199.451 66.5323 199.137 66.931 198.922C67.2836 198.707 67.644 198.6 68.012 198.6C68.058 198.6 68.104 198.6 68.15 198.6C68.7173 198.661 69.1696 198.914 69.507 199.359ZM84.6183 211.365C85.0477 211.748 85.2623 212.231 85.2623 212.814C85.2623 213.366 85.0783 213.834 84.7103 214.217C84.3423 214.6 83.89 214.792 83.3533 214.792C83.062 214.792 82.7707 214.731 82.4793 214.608C82.2033 214.485 81.981 214.309 81.8123 214.079L76.6603 208.559L75.3263 209.962V214.884C75.3263 215.175 75.2727 215.451 75.1653 215.712C75.058 215.973 74.9047 216.203 74.7053 216.402C74.506 216.586 74.276 216.732 74.0153 216.839C73.77 216.946 73.494 217 73.1873 217C72.896 217 72.62 216.946 72.3593 216.839C72.0987 216.716 71.8687 216.563 71.6693 216.379C71.47 216.18 71.3167 215.957 71.2093 215.712C71.102 215.451 71.0483 215.175 71.0483 214.884V200.67C71.0483 200.379 71.102 200.11 71.2093 199.865C71.332 199.604 71.493 199.382 71.6923 199.198C71.8917 199.014 72.1217 198.868 72.3823 198.761C72.643 198.654 72.919 198.6 73.2103 198.6C73.5017 198.6 73.7777 198.654 74.0383 198.761C74.299 198.868 74.5213 199.014 74.7053 199.198C74.9047 199.382 75.058 199.604 75.1653 199.865C75.2727 200.11 75.3263 200.379 75.3263 200.67V204.304L79.4663 199.865C79.635 199.696 79.8267 199.581 80.0413 199.52C80.256 199.443 80.4783 199.405 80.7083 199.405C81.245 199.405 81.705 199.597 82.0883 199.98C82.4717 200.363 82.6633 200.831 82.6633 201.383C82.6633 201.797 82.5407 202.173 82.2953 202.51L79.3283 205.684L84.6183 211.365ZM87.8597 201.268C89.4391 199.474 91.3327 198.577 93.5407 198.577C95.7641 198.577 97.6654 199.482 99.2447 201.291C100.824 203.085 101.614 205.255 101.614 207.8C101.614 210.345 100.824 212.515 99.2447 214.309C97.6654 216.103 95.7641 217 93.5407 217C91.3327 217 89.4391 216.103 87.8597 214.309C86.2804 212.515 85.4907 210.345 85.4907 207.8C85.4907 205.255 86.2804 203.077 87.8597 201.268ZM90.8037 210.951C91.5551 211.825 92.4674 212.262 93.5407 212.262C94.6294 212.262 95.5494 211.825 96.3007 210.951C97.0674 210.077 97.4507 209.027 97.4507 207.8C97.4507 206.573 97.0674 205.523 96.3007 204.649C95.5494 203.775 94.6294 203.338 93.5407 203.338C92.4674 203.338 91.5474 203.775 90.7807 204.649C90.0294 205.523 89.6537 206.573 89.6537 207.8C89.6537 209.027 90.0371 210.077 90.8037 210.951ZM114.747 207.386C115.283 207.539 115.774 207.769 116.219 208.076C116.663 208.383 117.047 208.743 117.369 209.157C117.691 209.571 117.936 210.039 118.105 210.56C118.289 211.066 118.381 211.595 118.381 212.147C118.381 212.822 118.25 213.458 117.99 214.056C117.729 214.639 117.369 215.152 116.909 215.597C116.464 216.026 115.943 216.371 115.345 216.632C114.762 216.877 114.141 217 113.482 217H104.926C104.634 217 104.351 216.946 104.075 216.839C103.814 216.732 103.584 216.586 103.385 216.402C103.185 216.203 103.024 215.973 102.902 215.712C102.794 215.451 102.741 215.175 102.741 214.884V200.762C102.741 200.195 102.925 199.712 103.293 199.313C103.661 198.914 104.121 198.677 104.673 198.6H111.343C112.063 198.6 112.73 198.73 113.344 198.991C113.957 199.252 114.494 199.612 114.954 200.072C115.414 200.532 115.774 201.076 116.035 201.705C116.295 202.334 116.426 203.008 116.426 203.729C116.426 205.186 115.866 206.405 114.747 207.386ZM107.295 205.293H111.205C111.603 205.293 111.941 205.155 112.217 204.879C112.508 204.603 112.654 204.266 112.654 203.867C112.654 203.468 112.508 203.131 112.217 202.855C111.925 202.579 111.58 202.441 111.182 202.441H107.295V205.293ZM112.378 213.159C112.822 213.159 113.206 212.99 113.528 212.653C113.85 212.3 114.011 211.894 114.011 211.434C114.011 210.989 113.85 210.606 113.528 210.284C113.374 210.115 113.198 209.977 112.999 209.87C112.815 209.763 112.608 209.709 112.378 209.709H107.295V213.159H112.378ZM121.304 201.268C122.883 199.474 124.777 198.577 126.985 198.577C129.208 198.577 131.11 199.482 132.689 201.291C134.268 203.085 135.058 205.255 135.058 207.8C135.058 210.345 134.268 212.515 132.689 214.309C131.11 216.103 129.208 217 126.985 217C124.777 217 122.883 216.103 121.304 214.309C119.725 212.515 118.935 210.345 118.935 207.8C118.935 205.255 119.725 203.077 121.304 201.268ZM124.248 210.951C124.999 211.825 125.912 212.262 126.985 212.262C128.074 212.262 128.994 211.825 129.745 210.951C130.512 210.077 130.895 209.027 130.895 207.8C130.895 206.573 130.512 205.523 129.745 204.649C128.994 203.775 128.074 203.338 126.985 203.338C125.912 203.338 124.992 203.775 124.225 204.649C123.474 205.523 123.098 206.573 123.098 207.8C123.098 209.027 123.481 210.077 124.248 210.951ZM151.684 212.423C152.267 212.423 152.75 212.653 153.133 213.113C153.532 213.558 153.731 214.087 153.731 214.7V219.553C153.731 220.12 153.532 220.603 153.133 221.002C152.735 221.401 152.252 221.6 151.684 221.6C151.117 221.6 150.634 221.401 150.235 221.002C149.837 220.603 149.637 220.12 149.637 219.553V217H138.482V219.553C138.482 220.105 138.283 220.58 137.884 220.979C137.486 221.393 137.003 221.6 136.435 221.6C135.883 221.6 135.4 221.393 134.986 220.979C134.588 220.58 134.388 220.105 134.388 219.553V214.7C134.388 214.087 134.58 213.558 134.963 213.113C135.362 212.653 135.853 212.423 136.435 212.423C136.895 212.423 137.21 212.354 137.378 212.216C137.562 212.063 137.723 211.794 137.861 211.411L140.575 200.647C140.744 200.064 140.997 199.581 141.334 199.198C141.687 198.799 142.116 198.6 142.622 198.6H148.418C148.986 198.6 149.469 198.807 149.867 199.221C150.266 199.62 150.465 200.095 150.465 200.647V212.423H151.684ZM146.371 212.423V202.694H144.14L141.748 212.423H146.371ZM157.081 198.6C157.709 198.6 158.231 198.822 158.645 199.267C159.059 199.696 159.266 200.218 159.266 200.831V208.099L164.441 199.405C164.64 199.068 164.878 198.853 165.154 198.761C165.445 198.654 165.721 198.6 165.982 198.6C166.672 198.6 167.231 198.807 167.661 199.221C168.105 199.635 168.328 200.172 168.328 200.831V214.792C168.328 215.083 168.266 215.367 168.144 215.643C168.036 215.904 167.883 216.141 167.684 216.356C167.5 216.555 167.277 216.716 167.017 216.839C166.756 216.946 166.472 217 166.166 217C165.859 217 165.568 216.946 165.292 216.839C165.016 216.716 164.778 216.555 164.579 216.356C164.379 216.141 164.218 215.904 164.096 215.643C163.988 215.367 163.935 215.083 163.935 214.792V207.57L158.829 216.126C158.599 216.463 158.346 216.693 158.07 216.816C157.809 216.939 157.525 217 157.219 217C156.559 217 156 216.793 155.54 216.379C155.095 215.965 154.873 215.436 154.873 214.792V200.831C154.873 200.202 155.08 199.673 155.494 199.244C155.908 198.815 156.437 198.6 157.081 198.6ZM181.962 198.6C182.514 198.631 182.989 198.845 183.388 199.244C183.786 199.627 183.986 200.103 183.986 200.67C183.986 201.222 183.786 201.697 183.388 202.096C182.974 202.51 182.498 202.725 181.962 202.74H178.788V214.93C178.788 215.513 178.596 215.996 178.213 216.379C177.799 216.793 177.3 217 176.718 217C176.15 217 175.66 216.793 175.246 216.379C174.847 215.965 174.648 215.482 174.648 214.93V202.74H171.474C170.922 202.725 170.439 202.51 170.025 202.096C169.641 201.697 169.45 201.222 169.45 200.67C169.45 200.103 169.641 199.627 170.025 199.244C170.423 198.845 170.906 198.631 171.474 198.6H181.962ZM189.176 202.671V205.799H194.305C194.888 205.799 195.371 205.991 195.754 206.374C196.137 206.757 196.329 207.24 196.329 207.823C196.329 208.406 196.137 208.896 195.754 209.295C195.371 209.678 194.888 209.87 194.305 209.87H189.176V212.492H194.121C194.428 212.492 194.711 212.553 194.972 212.676C195.248 212.783 195.486 212.944 195.685 213.159C195.884 213.358 196.038 213.596 196.145 213.872C196.268 214.148 196.329 214.439 196.329 214.746C196.329 215.39 196.107 215.927 195.662 216.356C195.233 216.785 194.704 217 194.075 217H187.129C186.884 217 186.638 216.954 186.393 216.862C186.148 216.755 185.925 216.617 185.726 216.448C185.542 216.264 185.389 216.057 185.266 215.827C185.159 215.597 185.105 215.352 185.105 215.091V200.532C185.105 200.271 185.159 200.026 185.266 199.796C185.389 199.551 185.542 199.344 185.726 199.175C185.91 198.991 186.125 198.853 186.37 198.761C186.615 198.654 186.868 198.6 187.129 198.6H195.386C195.969 198.6 196.452 198.784 196.835 199.152C197.218 199.52 197.41 199.995 197.41 200.578C197.41 200.869 197.356 201.145 197.249 201.406C197.142 201.651 196.996 201.874 196.812 202.073C196.628 202.257 196.406 202.403 196.145 202.51C195.9 202.617 195.639 202.671 195.363 202.671H189.176ZM211.51 198.6C212.062 198.6 212.538 198.807 212.936 199.221C213.35 199.635 213.557 200.11 213.557 200.647V214.677C213.557 215.26 213.35 215.789 212.936 216.264C212.538 216.739 212.062 216.977 211.51 216.977C210.974 216.977 210.498 216.739 210.084 216.264C209.686 215.789 209.486 215.26 209.486 214.677V202.694H207.255C205.661 209.149 204.863 212.385 204.863 212.4C204.557 213.642 203.966 214.715 203.092 215.62C202.218 216.525 201.39 216.977 200.608 216.977H199.55C199.044 216.977 198.577 216.732 198.147 216.241C197.718 215.735 197.503 215.221 197.503 214.7C197.503 214.163 197.718 213.65 198.147 213.159C198.577 212.653 199.044 212.4 199.55 212.4C200.01 212.4 200.325 212.331 200.493 212.193C200.677 212.04 200.838 211.771 200.976 211.388L203.69 200.647C203.844 200.064 204.089 199.581 204.426 199.198C204.779 198.799 205.216 198.6 205.737 198.6H211.51ZM224.23 205.96C225.702 205.975 226.975 206.497 228.048 207.524C229.137 208.551 229.704 209.793 229.75 211.25V211.503C229.75 213.052 229.206 214.355 228.117 215.413C227.029 216.456 225.733 216.977 224.23 216.977H216.893C216.28 216.977 215.759 216.747 215.329 216.287C214.915 215.827 214.708 215.29 214.708 214.677V200.647C214.708 200.049 214.915 199.558 215.329 199.175C215.759 198.792 216.28 198.6 216.893 198.6C217.507 198.6 218.02 198.792 218.434 199.175C218.864 199.558 219.078 200.049 219.078 200.647V205.96H224.23ZM224.046 212.4C224.445 212.4 224.782 212.262 225.058 211.986C225.334 211.695 225.472 211.357 225.472 210.974C225.472 210.575 225.334 210.23 225.058 209.939C224.782 209.648 224.445 209.502 224.046 209.502L219.078 209.525V212.4H224.046Z" fill="black"/>
<path d="M145.707 238.707C146.098 238.317 146.098 237.683 145.707 237.293L139.343 230.929C138.953 230.538 138.319 230.538 137.929 230.929C137.538 231.319 137.538 231.953 137.929 232.343L143.586 238L137.929 243.657C137.538 244.047 137.538 244.681 137.929 245.071C138.319 245.462 138.953 245.462 139.343 245.071L145.707 238.707ZM126 239H145V237H126V239Z" fill="black"/>
<path d="M186 95.7992C186 117.321 176.5 130.659 165.099 142.61C153.697 154.562 159.099 170 159.099 170H112.901C112.901 170 117.803 151.574 106.901 142.61C96 133.647 86 117.321 86 95.7992C86 68.2959 108.386 46 136 46C163.614 46 186 68.2959 186 95.7992Z" fill="#E29D23"/>
<path d="M181 95.3735C181 114.118 172.45 125.735 162.189 136.145C151.927 146.554 152.5 160 152.5 160H119.5C119.5 160 119.623 143.952 109.811 136.145C100 128.337 91 114.118 91 95.3735C91 71.419 111.147 52 136 52C160.853 52 181 71.419 181 95.3735Z" fill="#F4AB29"/>
<path d="M127.428 160.354V122.905M144.474 161V122.905M127.428 122.905C127.428 122.905 120.222 120.968 122.415 117.739C124.609 114.511 127.428 122.905 127.428 122.905ZM127.428 122.905C127.428 122.905 132.623 124.196 135.952 124.196C139.28 124.196 144.474 122.905 144.474 122.905M144.474 122.905C144.474 122.905 146.982 114.511 149.488 117.739C151.995 120.968 144.474 122.905 144.474 122.905Z" stroke="#D1901C" stroke-width="4"/>
<rect x="111" y="160" width="50" height="11" rx="2" fill="#4C5662"/>
<path d="M113 171H159V176C159 178.209 157.209 180 155 180H117C114.791 180 113 178.209 113 176V171Z" fill="#4C5662"/>
<path d="M119 179.25C119 179.112 119.112 179 119.25 179H152.75C152.888 179 153 179.112 153 179.25C153 183.53 149.53 187 145.25 187H126.75C122.47 187 119 183.53 119 179.25Z" fill="#4C5662"/>
<path fill-rule="evenodd" clip-rule="evenodd" d="M106.212 75.8105C106.214 75.8277 106.216 75.845 106.218 75.8623L106.218 75.8577C106.216 75.8322 106.214 75.7689 106.217 75.6737C106.223 75.4807 106.252 75.1755 106.345 74.7999C106.525 74.0769 106.949 73.0644 108.037 71.9875C109.144 70.8912 110.142 70.486 110.82 70.3211C111.175 70.2348 111.459 70.2118 111.633 70.2081C111.718 70.2063 111.773 70.2092 111.793 70.2106C113.349 70.4042 115.076 69.2481 115.674 67.6005C116.281 65.9312 115.498 64.3895 113.927 64.157L112.829 67.1796C113.927 64.157 113.924 64.1566 113.924 64.1566L113.921 64.1562L113.914 64.1552L113.9 64.1533L113.869 64.1491L113.79 64.1397C113.73 64.1332 113.657 64.1263 113.571 64.1204C113.398 64.1085 113.173 64.1002 112.9 64.106C112.357 64.1174 111.612 64.185 110.726 64.4003C108.921 64.8388 106.583 65.8814 104.279 68.1631C101.956 70.464 100.893 72.8421 100.439 74.6651C100.215 75.5626 100.14 76.3194 100.121 76.87C100.112 77.1467 100.117 77.3756 100.127 77.5495C100.131 77.6366 100.137 77.7103 100.142 77.7697L100.15 77.8483L100.154 77.8795L100.155 77.893L100.156 77.8993L100.157 77.9023C100.157 77.9023 100.157 77.9052 103.184 76.8565L100.157 77.9052C100.36 79.4879 101.881 80.3015 103.552 79.7223C105.205 79.1497 106.387 77.4306 106.218 75.8623M111.738 70.203L111.743 70.2038L111.753 70.2053L111.771 70.2076L111.793 70.2106C111.775 70.2082 111.756 70.2057 111.738 70.203Z" fill="white"/>
</g>
<defs>
<filter id="filter0_d_55_50" x="0" y="0" width="271" height="271" filterUnits="userSpaceOnUse" color-interpolation-filters="sRGB">
<feFlood flood-opacity="0" result="BackgroundImageFix"/>
<feColorMatrix in="SourceAlpha" type="matrix" values="0 0 0 0 0 0 0 0 0 0 0 0 0 0 0 0 0 0 127 0" result="hardAlpha"/>
<feOffset dy="4"/>
<feGaussianBlur stdDeviation="2"/>
<feComposite in2="hardAlpha" operator="out"/>
<feColorMatrix type="matrix" values="0 0 0 0 0 0 0 0 0 0 0 0 0 0 0 0 0 0 0.25 0"/>
<feBlend mode="normal" in2="BackgroundImageFix" result="effect1_dropShadow_55_50"/>
<feBlend mode="normal" in="SourceGraphic" in2="effect1_dropShadow_55_50" result="shape"/>
</filter>
<clipPath id="clip0_55_50">
<rect width="263" height="263" fill="white" transform="translate(4)"/>
</clipPath>
</defs>
</svg>
