<svg width="122" height="122" viewBox="0 0 122 122" fill="none" xmlns="http://www.w3.org/2000/svg">
<rect width="122" height="122" fill="white"/>
<mask id="mask0_9_101" style="mask-type:alpha" maskUnits="userSpaceOnUse" x="0" y="0" width="122" height="122">
<circle cx="60.9734" cy="60.8615" r="60.6699" fill="#78D4F7"/>
</mask>
<g mask="url(#mask0_9_101)">
<circle cx="60.9734" cy="60.8615" r="64.6954" fill="#78D4F7"/>
<rect x="33.5029" y="22.6488" width="72.4824" height="127.18" rx="30.0474" transform="rotate(15 33.5029 22.6488)" fill="#7B4628"/>
<circle cx="36.3751" cy="31.8506" r="10.835" transform="rotate(15 36.3751 31.8506)" fill="#7B4628"/>
<circle cx="96.4271" cy="47.9415" r="10.835" transform="rotate(15 96.4271 47.9415)" fill="#7B4628"/>
<circle cx="36.2308" cy="31.8119" r="6.05266" transform="rotate(15 36.2308 31.8119)" fill="#CE9E63"/>
<circle cx="96.4942" cy="48.2689" r="6.05266" transform="rotate(15 96.4942 48.2689)" fill="#CE9E63"/>
<rect x="33.5029" y="22.6487" width="72.4824" height="127.18" rx="30.0474" transform="rotate(15 33.5029 22.6487)" fill="#7B4628"/>
<path d="M73.6977 77.0478C71.4555 85.4158 62.6488 89.7162 53.8391 87.3557C45.0294 84.9951 39.5528 76.8675 41.795 68.4995C44.0372 60.1315 55.7438 45.0085 64.5535 47.3691C73.3632 49.7296 75.9399 68.6798 73.6977 77.0478Z" fill="#CE9E63"/>
<ellipse cx="4.97821" cy="4.98805" rx="4.97821" ry="4.98805" transform="matrix(0.965926 0.258819 0.258819 -0.965926 40.7867 57.8271)" fill="#231F20"/>
<ellipse cx="0.701164" cy="1.70403" rx="0.701164" ry="1.70403" transform="matrix(0.891006 0.45399 -0.452347 0.891842 43.7122 50.7776)" fill="#8E8D8D"/>
<ellipse cx="4.97821" cy="4.98805" rx="4.97821" ry="4.98805" transform="matrix(0.965926 0.258819 0.258819 -0.965926 70.0013 65.6551)" fill="#231F20"/>
<ellipse cx="0.701164" cy="1.70403" rx="0.701164" ry="1.70403" transform="matrix(0.891006 0.45399 -0.452347 0.891842 72.9703 58.4434)" fill="#8E8D8D"/>
<ellipse cx="40.8916" cy="135.099" rx="27.5732" ry="39.1555" transform="rotate(15 40.8916 135.099)" fill="#CE9E63"/>
<rect x="37.3804" y="48.8092" width="22.3343" height="9.9707" rx="3.091" transform="rotate(15 37.3804 48.8092)" fill="#D4FCFC" fill-opacity="0.3" stroke="#231F20" stroke-width="1.00637"/>
<rect x="65.504" y="56.3449" width="22.3343" height="9.9707" rx="3.091" transform="rotate(15 65.504 56.3449)" fill="#D4FCFC" fill-opacity="0.3" stroke="#231F20" stroke-width="1.00637"/>
<rect x="57.2197" y="59.2863" width="7.70002" height="1.51408" transform="rotate(15 57.2197 59.2863)" fill="black"/>
<path d="M64.4682 69.3408C64.0376 70.9479 60.9803 72.4046 57.9109 71.5822C54.8415 70.7597 52.9222 67.9695 53.3528 66.3625C53.7834 64.7554 56.6207 64.1194 59.6902 64.9418C62.7596 65.7643 64.8988 67.7338 64.4682 69.3408Z" fill="#231F20"/>
<rect x="32.9622" y="62.483" width="6.82653" height="4.51432" rx="2.25716" transform="rotate(15 32.9622 62.483)" fill="#FFAEAE" fill-opacity="0.5"/>
<rect width="6.82653" height="4.51432" rx="2.25716" transform="matrix(0.965926 0.258819 0.258819 -0.965926 76.5442 78.8343)" fill="#FFAEAE" fill-opacity="0.5"/>
<path d="M71.4926 77.7707C70.4938 81.4983 62.0119 87.6889 54.1589 85.5847C46.3059 83.4805 42.0557 73.8783 43.0545 70.1507C44.0533 66.4231 49.4206 71.8565 57.2736 73.9607C65.1265 76.0649 72.4914 74.0431 71.4926 77.7707Z" fill="#231F20"/>
<mask id="mask1_9_101" style="mask-type:alpha" maskUnits="userSpaceOnUse" x="42" y="68" width="30" height="19">
<path d="M71.4926 77.7707C70.4938 81.4983 62.0119 87.6889 54.1589 85.5847C46.3059 83.4805 42.0557 73.8783 43.0545 70.1507C44.0533 66.4231 49.4206 71.8565 57.2736 73.9607C65.1265 76.0649 72.4914 74.0431 71.4926 77.7707Z" fill="#D9D9D9"/>
</mask>
<g mask="url(#mask1_9_101)">
<ellipse cx="51.0588" cy="81.4851" rx="5.43448" ry="4.46424" transform="rotate(15 51.0588 81.4851)" fill="#FC80C6"/>
<ellipse cx="5.43448" cy="4.46424" rx="5.43448" ry="4.46424" transform="matrix(-0.965926 -0.258819 -0.258819 0.965926 65.4425 80.7174)" fill="#FC80C6"/>
<ellipse cx="50.6686" cy="86.9615" rx="3.90186" ry="4.12477" transform="rotate(15 50.6686 86.9615)" fill="white"/>
<ellipse cx="50.6686" cy="86.9615" rx="3.90186" ry="4.12477" transform="rotate(15 50.6686 86.9615)" fill="white"/>
<ellipse cx="45.518" cy="81.5144" rx="3.90186" ry="4.12477" transform="rotate(15 45.518 81.5144)" fill="white"/>
<ellipse cx="45.518" cy="81.5144" rx="3.90186" ry="4.12477" transform="rotate(15 45.518 81.5144)" fill="white"/>
<ellipse cx="3.90186" cy="4.12477" rx="3.90186" ry="4.12477" transform="matrix(-0.965926 -0.258819 -0.258819 0.965926 61.3297 85.5478)" fill="white"/>
<ellipse cx="3.90186" cy="4.12477" rx="3.90186" ry="4.12477" transform="matrix(-0.965926 -0.258819 -0.258819 0.965926 61.3297 85.5478)" fill="white"/>
<ellipse cx="3.90186" cy="4.12477" rx="3.90186" ry="4.12477" transform="matrix(-0.965926 -0.258819 -0.258819 0.965926 68.5138 83.4059)" fill="white"/>
<ellipse cx="3.90186" cy="4.12477" rx="3.90186" ry="4.12477" transform="matrix(-0.965926 -0.258819 -0.258819 0.965926 68.5138 83.4059)" fill="white"/>
<ellipse cx="48.9584" cy="68.9668" rx="3.90186" ry="4.12477" transform="rotate(15 48.9584 68.9668)" fill="white"/>
<ellipse cx="48.9584" cy="68.9668" rx="3.90186" ry="4.12477" transform="rotate(15 48.9584 68.9668)" fill="white"/>
<ellipse cx="3.90186" cy="4.12477" rx="3.90186" ry="4.12477" transform="matrix(-0.965926 -0.258819 -0.258819 0.965926 71.9542 70.8582)" fill="white"/>
<ellipse cx="3.90186" cy="4.12477" rx="3.90186" ry="4.12477" transform="matrix(-0.965926 -0.258819 -0.258819 0.965926 71.9542 70.8582)" fill="white"/>
</g>
<rect x="45.4939" y="100.183" width="24.6926" height="33.3633" rx="2.73158" transform="rotate(-8.3022 45.4939 100.183)" fill="#E29D23"/>
<rect x="47.4991" y="102.176" width="21.4882" height="29.0279" rx="2.73158" transform="rotate(-8.3022 47.4991 102.176)" fill="#F4AB29"/>
<path d="M61.6446 128.94C57.4885 129.454 53.6731 126.779 52.5191 122.754C50.9682 117.343 54.7955 111.871 60.36 111.024C63.2315 110.587 66.2124 110.024 68.6684 109.32C75.9447 107.234 81.492 100.324 86.4723 101.658C93.303 103.488 91.7289 113.281 89.0935 117.282C84.9297 123.603 80.9343 124.641 73.6581 126.727C70.1115 127.743 65.4706 128.466 61.6446 128.94Z" fill="#663A21"/>
<path d="M26.0858 119.412C29.4279 121.935 34.0695 121.527 37.0818 118.617C41.1303 114.707 40.5519 108.054 36.1563 104.538C33.888 102.724 31.588 100.746 29.813 98.9085C24.5544 93.4641 23.2055 84.7059 18.2252 83.3714C11.3945 81.5412 7.86121 90.8092 8.14311 95.5916C8.58851 103.148 11.5298 106.044 16.7883 111.489C19.3514 114.142 23.0093 117.088 26.0858 119.412Z" fill="#663A21"/>
<ellipse cx="62.3071" cy="30.0574" rx="5.08124" ry="4.93179" transform="rotate(15 62.3071 30.0574)" fill="#7B4628"/>
<ellipse cx="67.353" cy="32.8793" rx="4.25928" ry="4.10983" transform="rotate(15 67.353 32.8793)" fill="#7B4628"/>
<ellipse cx="52.5644" cy="42.4547" rx="3.36259" ry="1.94283" transform="rotate(15 52.5644 42.4547)" fill="#663A21"/>
<ellipse cx="77.2492" cy="49.069" rx="3.36259" ry="1.94283" transform="rotate(15 77.2492 49.069)" fill="#663A21"/>
</g>
</svg>
