<svg width="261" height="34" viewBox="0 0 261 34" fill="none" xmlns="http://www.w3.org/2000/svg">
<path d="M20.366 7.922C20.774 8.48867 20.978 9.112 20.978 9.792C20.978 9.90533 20.978 10.0073 20.978 10.098C20.9553 10.4153 20.8873 10.71 20.774 10.982L10.812 31.96C10.472 32.5493 9.87133 33.0367 9.01 33.422C8.14867 33.8073 7.29867 34 6.46 34H6.12C5.712 34 5.24733 33.898 4.726 33.694C4.20467 33.49 3.79667 33.218 3.502 32.878C2.86733 32.13 2.55 31.3707 2.55 30.6C2.55 29.8067 2.86733 29.0473 3.502 28.322C4.13667 27.574 4.828 27.2 5.576 27.2C6.256 27.2 6.732 27.098 7.004 26.894C7.18533 26.7127 7.36667 26.4407 7.548 26.078L0.34 11.118C0.181333 10.8007 0.0906667 10.472 0.068 10.132C0.0453333 9.996 0.034 9.87133 0.034 9.758C0.034 9.10067 0.238 8.5 0.646 7.956C1.122 7.29867 1.77933 6.92467 2.618 6.834C2.73133 6.81133 2.83333 6.8 2.924 6.8C3.44533 6.8 3.944 6.936 4.42 7.208C5.00933 7.548 5.44 8.024 5.712 8.636L10.676 18.972L15.3 8.67C15.5493 8.058 15.9687 7.59333 16.558 7.276C17.0793 6.95867 17.612 6.8 18.156 6.8C18.224 6.8 18.292 6.8 18.36 6.8C19.1987 6.89067 19.8673 7.26467 20.366 7.922ZM47.6752 30.294V30.498C47.6752 31.4047 47.3692 32.198 46.7572 32.878C46.1678 33.558 45.4085 33.932 44.4792 34H44.2072C43.2552 34 42.4392 33.694 41.7592 33.082C41.1018 32.47 40.7392 31.6993 40.6712 30.77L40.0932 23.732L37.5432 30.124C36.9765 31.5293 35.9225 32.232 34.3812 32.232C33.6332 32.232 32.9645 32.062 32.3752 31.722C31.8085 31.382 31.3778 30.8493 31.0832 30.124L28.5332 23.732L27.9552 30.77C27.8872 31.6993 27.5132 32.47 26.8332 33.082C26.1758 33.694 25.3712 34 24.4192 34H24.1472C23.2178 33.932 22.4472 33.558 21.8352 32.878C21.2458 32.198 20.9512 31.4047 20.9512 30.498V30.294L22.6512 9.996C22.7418 9.06667 23.1158 8.30733 23.7732 7.718C24.4532 7.106 25.2578 6.8 26.1872 6.8H26.4252C27.1052 6.8 27.7172 7.01533 28.2612 7.446C28.8052 7.87667 29.2018 8.40933 29.4512 9.044L34.3132 21.182L39.1752 9.044C39.4245 8.432 39.8212 7.91067 40.3652 7.48C40.9092 7.02667 41.5212 6.8 42.2012 6.8H42.4392C43.3685 6.8 44.1618 7.106 44.8192 7.718C45.4992 8.30733 45.8845 9.06667 45.9752 9.996L47.6752 30.294ZM66.917 7.684C67.5064 8.296 67.801 9.01 67.801 9.826V30.974C67.801 31.79 67.5064 32.504 66.917 33.116C66.3277 33.7053 65.6137 34 64.775 34C64.0044 34 63.2904 33.7053 62.633 33.116C62.0437 32.5947 61.749 31.8807 61.749 30.974V24.208H55.425V30.974C55.425 31.8807 55.1304 32.5947 54.541 33.116C53.8837 33.7053 53.1697 34 52.399 34C51.6284 34 50.9144 33.7053 50.257 33.116C49.6677 32.572 49.373 31.858 49.373 30.974V9.826C49.373 8.98733 49.6677 8.27333 50.257 7.684C50.869 7.09467 51.583 6.8 52.399 6.8C53.2377 6.8 53.963 7.09467 54.575 7.684C55.1417 8.228 55.425 8.942 55.425 9.826V18.02H61.749V9.826C61.749 8.98733 62.0437 8.27333 62.633 7.684C63.2224 7.09467 63.9364 6.8 64.775 6.8C65.6364 6.8 66.3504 7.09467 66.917 7.684ZM83.5369 17.68C85.7356 17.7027 87.6283 18.4733 89.2149 19.992C90.8016 21.5107 91.6403 23.358 91.7309 25.534V25.874C91.7309 28.186 90.9263 30.124 89.3169 31.688C87.7076 33.2293 85.7809 34 83.5369 34H72.6909C71.8069 34 71.0476 33.66 70.4129 32.98C69.7783 32.3 69.4609 31.5067 69.4609 30.6V9.826C69.4609 8.942 69.7669 8.21666 70.3789 7.65C71.0136 7.08333 71.7843 6.8 72.6909 6.8C73.5976 6.8 74.3569 7.08333 74.9689 7.65C75.6036 8.21666 75.9209 8.942 75.9209 9.826V17.68H83.5369ZM83.2649 27.2C83.8543 27.2 84.3529 26.996 84.7609 26.588C85.1916 26.18 85.4069 25.6813 85.4069 25.092C85.4069 24.5027 85.1916 24.004 84.7609 23.596C84.3529 23.1653 83.8543 22.95 83.2649 22.95H75.9209V27.234L83.2649 27.2ZM99.4489 31.008C99.4489 31.8467 99.1543 32.5607 98.5649 33.15C97.9756 33.7167 97.2616 34 96.4229 34C95.6069 34 94.9043 33.7167 94.3149 33.15C93.7483 32.5833 93.4536 31.892 93.4309 31.076V9.758C93.4309 8.91933 93.7143 8.21666 94.2809 7.65C94.8703 7.08333 95.5843 6.8 96.4229 6.8C97.2616 6.8 97.9756 7.08333 98.5649 7.65C99.1543 8.21666 99.4489 8.91933 99.4489 9.758V31.008ZM109.366 1.666C108.867 1.462 108.504 1.23533 108.278 0.985997C108.051 0.736665 107.779 0.521331 107.462 0.339998C107.144 0.158665 106.804 0.0679991 106.442 0.0679991C105.898 0.0679991 105.456 0.249332 105.116 0.611998C104.776 0.974666 104.606 1.38267 104.606 1.836C104.606 2.83333 105.229 3.69466 106.476 4.42C107.745 5.14533 109.275 5.508 111.066 5.508C112.788 5.508 114.25 5.14533 115.452 4.42C116.676 3.672 117.288 2.81066 117.288 1.836C117.288 1.38267 117.118 0.974666 116.778 0.611998C116.438 0.249332 115.996 0.0679991 115.452 0.0679991C115.089 0.0679991 114.76 0.158665 114.466 0.339998C114.194 0.521331 113.956 0.736665 113.752 0.985997C113.548 1.23533 113.208 1.462 112.732 1.666C112.256 1.87 111.689 1.972 111.032 1.972C110.397 1.972 109.842 1.87 109.366 1.666ZM104.368 6.8C105.297 6.8 106.068 7.12867 106.68 7.786C107.292 8.42067 107.598 9.19133 107.598 10.098V20.842L115.248 7.99C115.542 7.49133 115.894 7.174 116.302 7.038C116.732 6.87933 117.14 6.8 117.526 6.8C118.546 6.8 119.373 7.106 120.008 7.718C120.665 8.33 120.994 9.12333 120.994 10.098V30.736C120.994 31.1667 120.903 31.586 120.722 31.994C120.563 32.3793 120.336 32.7307 120.042 33.048C119.77 33.3427 119.441 33.5807 119.056 33.762C118.67 33.9207 118.251 34 117.798 34C117.344 34 116.914 33.9207 116.506 33.762C116.098 33.5807 115.746 33.3427 115.452 33.048C115.157 32.7307 114.919 32.3793 114.738 31.994C114.579 31.586 114.5 31.1667 114.5 30.736V20.06L106.952 32.708C106.612 33.2067 106.238 33.5467 105.83 33.728C105.444 33.9093 105.025 34 104.572 34C103.597 34 102.77 33.694 102.09 33.082C101.432 32.47 101.104 31.688 101.104 30.736V10.098C101.104 9.16867 101.41 8.38667 102.022 7.752C102.634 7.11733 103.416 6.8 104.368 6.8ZM161.761 30.294V30.498C161.761 31.4047 161.455 32.198 160.843 32.878C160.254 33.558 159.494 33.932 158.565 34H158.293C157.341 34 156.525 33.694 155.845 33.082C155.188 32.47 154.825 31.6993 154.757 30.77L154.179 23.732L151.629 30.124C151.062 31.5293 150.008 32.232 148.467 32.232C147.719 32.232 147.05 32.062 146.461 31.722C145.894 31.382 145.464 30.8493 145.169 30.124L142.619 23.732L142.041 30.77C141.973 31.6993 141.599 32.47 140.919 33.082C140.262 33.694 139.457 34 138.505 34H138.233C137.304 33.932 136.533 33.558 135.921 32.878C135.332 32.198 135.037 31.4047 135.037 30.498V30.294L136.737 9.996C136.828 9.06667 137.202 8.30733 137.859 7.718C138.539 7.106 139.344 6.8 140.273 6.8H140.511C141.191 6.8 141.803 7.01533 142.347 7.446C142.891 7.87667 143.288 8.40933 143.537 9.044L148.399 21.182L153.261 9.044C153.51 8.432 153.907 7.91067 154.451 7.48C154.995 7.02667 155.607 6.8 156.287 6.8H156.525C157.454 6.8 158.248 7.106 158.905 7.718C159.585 8.30733 159.97 9.06667 160.061 9.996L161.761 30.294ZM166.723 6.8C167.652 6.8 168.423 7.12867 169.035 7.786C169.647 8.42067 169.953 9.19133 169.953 10.098V20.842L177.603 7.99C177.898 7.49133 178.249 7.174 178.657 7.038C179.088 6.87933 179.496 6.8 179.881 6.8C180.901 6.8 181.728 7.106 182.363 7.718C183.02 8.33 183.349 9.12333 183.349 10.098V30.736C183.349 31.1667 183.258 31.586 183.077 31.994C182.918 32.3793 182.692 32.7307 182.397 33.048C182.125 33.3427 181.796 33.5807 181.411 33.762C181.026 33.9207 180.606 34 180.153 34C179.7 34 179.269 33.9207 178.861 33.762C178.453 33.5807 178.102 33.3427 177.807 33.048C177.512 32.7307 177.274 32.3793 177.093 31.994C176.934 31.586 176.855 31.1667 176.855 30.736V20.06L169.307 32.708C168.967 33.2067 168.593 33.5467 168.185 33.728C167.8 33.9093 167.38 34 166.927 34C165.952 34 165.125 33.694 164.445 33.082C163.788 32.47 163.459 31.688 163.459 30.736V10.098C163.459 9.16867 163.765 8.38667 164.377 7.752C164.989 7.11733 165.771 6.8 166.723 6.8ZM212.208 9.826V30.974C212.208 31.7447 211.879 32.4473 211.222 33.082C210.587 33.694 209.907 34 209.182 34H188.034C187.24 34 186.538 33.7053 185.926 33.116C185.314 32.504 185.008 31.79 185.008 30.974V9.826C185.008 8.98733 185.302 8.27333 185.892 7.684C186.481 7.09467 187.184 6.8 188 6.8C188.838 6.8 189.552 7.09467 190.142 7.684C190.754 8.27333 191.06 8.98733 191.06 9.826V27.234H195.582V9.826C195.582 8.98733 195.876 8.27333 196.466 7.684C197.055 7.09467 197.758 6.8 198.574 6.8C199.412 6.8 200.126 7.09467 200.716 7.684C201.328 8.27333 201.634 8.98733 201.634 9.826V27.234H206.156V9.826C206.156 8.98733 206.45 8.27333 207.04 7.684C207.629 7.09467 208.332 6.8 209.148 6.8C209.986 6.8 210.7 7.09467 211.29 7.684C211.902 8.27333 212.208 8.98733 212.208 9.826ZM233.921 25.67C234.556 26.2367 234.873 26.9507 234.873 27.812C234.873 28.628 234.601 29.3193 234.057 29.886C233.513 30.4527 232.845 30.736 232.051 30.736C231.621 30.736 231.19 30.6453 230.759 30.464C230.351 30.2827 230.023 30.022 229.773 29.682L222.157 21.522L220.185 23.596V30.872C220.185 31.3027 220.106 31.7107 219.947 32.096C219.789 32.4813 219.562 32.8213 219.267 33.116C218.973 33.388 218.633 33.6033 218.247 33.762C217.885 33.9207 217.477 34 217.023 34C216.593 34 216.185 33.9207 215.799 33.762C215.414 33.5807 215.074 33.354 214.779 33.082C214.485 32.7873 214.258 32.4587 214.099 32.096C213.941 31.7107 213.861 31.3027 213.861 30.872V9.86C213.861 9.42933 213.941 9.03267 214.099 8.67C214.281 8.28467 214.519 7.956 214.813 7.684C215.108 7.412 215.448 7.19667 215.833 7.038C216.219 6.87933 216.627 6.8 217.057 6.8C217.488 6.8 217.896 6.87933 218.281 7.038C218.667 7.19667 218.995 7.412 219.267 7.684C219.562 7.956 219.789 8.28467 219.947 8.67C220.106 9.03267 220.185 9.42933 220.185 9.86V15.232L226.305 8.67C226.555 8.42066 226.838 8.25067 227.155 8.16C227.473 8.04667 227.801 7.99 228.141 7.99C228.935 7.99 229.615 8.27333 230.181 8.84C230.748 9.40667 231.031 10.098 231.031 10.914C231.031 11.526 230.85 12.0813 230.487 12.58L226.101 17.272L233.921 25.67ZM260.392 29.41C260.506 29.7047 260.585 30.0107 260.63 30.328C260.676 30.6227 260.698 30.8607 260.698 31.042C260.698 31.45 260.596 31.8353 260.392 32.198C260.211 32.5607 259.962 32.878 259.644 33.15C259.35 33.422 258.998 33.6373 258.59 33.796C258.205 33.932 257.808 34 257.4 34C256.199 34 255.281 33.3767 254.646 32.13L252.946 27.778H246.112L244.412 32.13C243.778 33.3767 242.86 34 241.658 34C241.25 34 240.842 33.932 240.434 33.796C240.049 33.6373 239.698 33.422 239.38 33.15C239.086 32.878 238.836 32.5607 238.632 32.198C238.451 31.8353 238.36 31.45 238.36 31.042C238.36 30.8607 238.383 30.6227 238.428 30.328C238.474 30.0107 238.553 29.7047 238.666 29.41L239.312 27.778C238.338 27.7327 237.499 27.4493 236.796 26.928C236.094 26.4067 235.742 25.636 235.742 24.616C235.742 23.664 236.037 22.8933 236.626 22.304C237.238 21.692 238.009 21.386 238.938 21.386H241.794L246.724 8.432C246.815 8.18267 246.962 7.956 247.166 7.752C247.37 7.548 247.608 7.378 247.88 7.242C248.152 7.106 248.436 7.004 248.73 6.936C249.048 6.84533 249.342 6.8 249.614 6.8C250.181 6.8 250.714 6.94733 251.212 7.242C251.734 7.53666 252.085 7.93333 252.266 8.432L260.392 29.41ZM250.498 21.352L249.546 18.768L248.56 21.352H250.498Z" fill="black"/>
</svg>
